<?xml version="1.0" encoding="UTF-8" standalone="no"?>
<!-- Created with Inkscape (http://www.inkscape.org/) -->
<svg
   xmlns:dc="http://purl.org/dc/elements/1.1/"
   xmlns:cc="http://creativecommons.org/ns#"
   xmlns:rdf="http://www.w3.org/1999/02/22-rdf-syntax-ns#"
   xmlns:svg="http://www.w3.org/2000/svg"
   xmlns="http://www.w3.org/2000/svg"
   xmlns:sodipodi="http://sodipodi.sourceforge.net/DTD/sodipodi-0.dtd"
   xmlns:inkscape="http://www.inkscape.org/namespaces/inkscape"
   width="744.09448"
   height="1052.3622"
   id="svg2"
   sodipodi:version="0.32"
   inkscape:version="0.46"
   version="1.0"
   sodipodi:docname="orange-ghost-c-c.svg"
   inkscape:output_extension="org.inkscape.output.svg.inkscape">
  <defs
     id="defs4">
    <inkscape:perspective
       sodipodi:type="inkscape:persp3d"
       inkscape:vp_x="0 : 526.18109 : 1"
       inkscape:vp_y="0 : 1000 : 0"
       inkscape:vp_z="744.09448 : 526.18109 : 1"
       inkscape:persp3d-origin="372.04724 : 350.78739 : 1"
       id="perspective10" />
    <inkscape:perspective
       id="perspective4802"
       inkscape:persp3d-origin="372.04724 : 350.78739 : 1"
       inkscape:vp_z="744.09448 : 526.18109 : 1"
       inkscape:vp_y="0 : 1000 : 0"
       inkscape:vp_x="0 : 526.18109 : 1"
       sodipodi:type="inkscape:persp3d" />
  </defs>
  <sodipodi:namedview
     id="base"
     pagecolor="#ffffff"
     bordercolor="#666666"
     borderopacity="1.0"
     gridtolerance="10000"
     guidetolerance="10"
     objecttolerance="10"
     inkscape:pageopacity="0.0"
     inkscape:pageshadow="2"
     inkscape:zoom="1.5603283"
     inkscape:cx="246.12088"
     inkscape:cy="248.03149"
     inkscape:document-units="mm"
     inkscape:current-layer="layer1"
     showgrid="true"
     inkscape:showpageshadow="false"
     units="mm"
     inkscape:window-width="1164"
     inkscape:window-height="1030"
     inkscape:window-x="8"
     inkscape:window-y="3">
    <inkscape:grid
       type="xygrid"
       id="grid2407"
       units="mm"
       visible="true"
       enabled="true"
       spacingx="10mm"
       spacingy="10mm"
       color="#000083"
       opacity="0.05882353" />
  </sodipodi:namedview>
  <metadata
     id="metadata7">
    <rdf:RDF>
      <cc:Work
         rdf:about="">
        <dc:format>image/svg+xml</dc:format>
        <dc:type
           rdf:resource="http://purl.org/dc/dcmitype/StillImage" />
      </cc:Work>
    </rdf:RDF>
  </metadata>
  <g
     inkscape:label="Layer 1"
     inkscape:groupmode="layer"
     id="layer1">
    <path
       style="fill:#ff7f2a;fill-rule:evenodd;stroke:none;stroke-width:1px;stroke-linecap:butt;stroke-linejoin:miter;stroke-opacity:1"
       d="M 124.01561,804.3307 L 111.34186,804.97119 L 99.033134,806.85104 L 87.151869,809.90779 L 75.760544,814.07901 L 64.921608,819.30224 L 54.697514,825.51504 L 45.150723,832.65496 L 36.34369,840.65955 L 28.338874,849.46637 L 21.198727,859.01298 L 14.98571,869.23691 L 9.7622782,880.07573 L 5.5908874,891.46699 L 2.5339951,903.34825 L 0.65405836,915.65704 L 0.013533465,928.33094 L 0.013533465,1052.3622 L 35.343487,1016.9291 L 70.68694,1052.3622 L 106.03039,1052.3622 L 106.03039,1016.9291 L 141.37384,1016.9291 L 141.37384,1052.3622 L 176.71729,1052.3622 L 212.06075,1016.9291 L 248.04503,1052.3622 L 248.04503,928.33094 L 247.40421,915.65704 L 245.5234,903.34825 L 242.46514,891.467 L 238.292,880.07574 L 233.0665,869.23691 L 226.85118,859.01298 L 219.70856,849.46638 L 211.70121,840.65956 L 202.89162,832.65497 L 193.34235,825.51505 L 183.11595,819.30225 L 172.27495,814.07902 L 160.88187,809.9078 L 148.99927,806.85104 L 136.68967,804.97119 L 124.01561,804.3307 z"
       id="path3461"
       sodipodi:nodetypes="cccccccccccccccccccccccccccccccccccccccccccc" />
    <path
       style="fill:#ffffff;fill-rule:evenodd;stroke:none;stroke-width:1px;stroke-linecap:butt;stroke-linejoin:miter;stroke-opacity:1"
       d="M 53.157827,946.06298 L 35.44081,928.34645 L 35.44081,875.19684 L 53.157827,857.48031 L 88.591864,857.48031 L 106.30888,875.19684 L 106.30888,928.34645 L 88.591864,946.06298 L 53.157827,946.06298 z"
       id="path3976" />
    <path
       style="fill:#000000;fill-rule:evenodd;stroke:none;stroke-width:1px;stroke-linecap:butt;stroke-linejoin:miter;stroke-opacity:1"
       d="M 53.157822,875.19684 L 88.591839,875.19684 L 88.591839,910.62992 L 53.157822,910.62992 L 53.157822,875.19684 z"
       id="path3980" />
    <path
       style="fill:#ffffff;fill-rule:evenodd;stroke:none;stroke-width:1px;stroke-linecap:butt;stroke-linejoin:miter;stroke-opacity:1"
       d="M 159.45994,946.06298 L 141.74292,928.34645 L 141.74292,875.19684 L 159.45994,857.48031 L 194.89397,857.48031 L 212.61099,875.19684 L 212.61099,928.34645 L 194.89397,946.06298 L 159.45994,946.06298 z"
       id="path3982" />
    <path
       style="fill:#000000;fill-rule:evenodd;stroke:none;stroke-width:1px;stroke-linecap:butt;stroke-linejoin:miter;stroke-opacity:1"
       d="M 159.45994,875.19684 L 194.89397,875.19684 L 194.89397,910.62992 L 159.45994,910.62992 L 159.45994,875.19684 z"
       id="path3984" />
  </g>
</svg>
