<?xml version="1.0" encoding="UTF-8" standalone="no"?>
<!-- Created with Inkscape (http://www.inkscape.org/) -->
<svg
   xmlns:dc="http://purl.org/dc/elements/1.1/"
   xmlns:cc="http://creativecommons.org/ns#"
   xmlns:rdf="http://www.w3.org/1999/02/22-rdf-syntax-ns#"
   xmlns:svg="http://www.w3.org/2000/svg"
   xmlns="http://www.w3.org/2000/svg"
   xmlns:sodipodi="http://sodipodi.sourceforge.net/DTD/sodipodi-0.dtd"
   xmlns:inkscape="http://www.inkscape.org/namespaces/inkscape"
   width="744.09448"
   height="1052.3622"
   id="svg2"
   sodipodi:version="0.32"
   inkscape:version="0.46"
   version="1.0"
   sodipodi:docname="pacman4.svg"
   inkscape:output_extension="org.inkscape.output.svg.inkscape">
  <defs
     id="defs4">
    <inkscape:perspective
       sodipodi:type="inkscape:persp3d"
       inkscape:vp_x="0 : 526.18109 : 1"
       inkscape:vp_y="0 : 1000 : 0"
       inkscape:vp_z="744.09448 : 526.18109 : 1"
       inkscape:persp3d-origin="372.04724 : 350.78739 : 1"
       id="perspective10" />
  </defs>
  <sodipodi:namedview
     id="base"
     pagecolor="#ffffff"
     bordercolor="#666666"
     borderopacity="1.0"
     gridtolerance="10"
     guidetolerance="10"
     objecttolerance="10"
     inkscape:pageopacity="0.0"
     inkscape:pageshadow="2"
     inkscape:zoom="2.081273"
     inkscape:cx="335.4146"
     inkscape:cy="126.44469"
     inkscape:document-units="mm"
     inkscape:current-layer="layer1"
     showgrid="true"
     inkscape:showpageshadow="false"
     units="mm"
     inkscape:window-width="1680"
     inkscape:window-height="1031"
     inkscape:window-x="-4"
     inkscape:window-y="-4"
     inkscape:object-paths="false"
     inkscape:object-nodes="true"
     showguides="true"
     inkscape:guide-bbox="true">
    <inkscape:grid
       type="xygrid"
       id="grid2407"
       units="mm"
       visible="true"
       enabled="true"
       spacingx="10mm"
       spacingy="10mm"
       color="#000083"
       opacity="0.05882353" />
  </sodipodi:namedview>
  <metadata
     id="metadata7">
    <rdf:RDF>
      <cc:Work
         rdf:about="">
        <dc:format>image/svg+xml</dc:format>
        <dc:type
           rdf:resource="http://purl.org/dc/dcmitype/StillImage" />
      </cc:Work>
    </rdf:RDF>
  </metadata>
  <g
     inkscape:label="Layer 1"
     inkscape:groupmode="layer"
     id="layer1">
    <path
       style="fill:#ffff00;fill-opacity:1;stroke:none;stroke-opacity:1"
       d="M 258.6747,928.34645 L 258.03164,941.02052 L 256.14425,953.32981 L 253.07528,965.21182 L 248.88744,976.60408 L 243.64347,987.44407 L 237.40609,997.66931 L 230.23802,1007.2173 L 222.20199,1016.0256 L 213.36074,1024.0316 L 203.77697,1031.173 L 193.51343,1037.3871 L 182.63284,1042.6115 L 171.19792,1046.7837 L 159.27139,1049.8412 L 146.916,1051.7216 L 134.19446,1052.3622 L 121.47292,1051.7216 L 109.11752,1049.8412 L 97.191005,1046.7837 L 85.756086,1042.6115 L 74.87549,1037.3871 L 64.611947,1031.173 L 55.028186,1024.0316 L 46.186928,1016.0256 L 38.150902,1007.2173 L 30.982834,997.66931 L 24.745449,987.44407 L 19.501476,976.60408 L 134.19446,928.34645 L 19.501476,880.08882 L 24.745449,869.24883 L 30.982834,859.02359 L 38.150902,849.47558 L 46.186928,840.66732 L 55.028186,832.66128 L 64.611947,825.51996 L 74.87549,819.30585 L 85.756086,814.08144 L 97.191005,809.90923 L 109.11752,806.85171 L 121.47292,804.97137 L 134.19446,804.3307 L 146.916,804.97137 L 159.27139,806.85171 L 171.19792,809.90923 L 182.63284,814.08144 L 193.51343,819.30585 L 203.77697,825.51996 L 213.36074,832.66128 L 222.20199,840.66732 L 230.23802,849.47558 L 237.40609,859.02359 L 243.64347,869.24883 L 248.88744,880.08882 L 253.07528,891.48107 L 256.14425,903.36309 L 258.03164,915.67238 L 258.6747,928.34645 z"
       id="path4006"
       sodipodi:nodetypes="ccccccccccccccccccccccccccccccccccccccccccccccccccccccccccc" />
    <path
       style="fill:#000000;fill-rule:evenodd;stroke:none;stroke-width:1px;stroke-linecap:butt;stroke-linejoin:miter;stroke-opacity:1"
       d="M 116.41157,839.76377 L 151.97735,839.76377 L 151.97735,875.19685 L 116.41157,875.19685 L 116.41157,839.76377 z"
       id="path3980"
       sodipodi:nodetypes="ccccc" />
    <path
       id="boundary"
       style="fill:none;fill-opacity:1;stroke:#000000;stroke-opacity:1"
       d="M 134.63305,928.93948 L 19.501476,880.08882 L 46.599242,841.26033 L 86.168402,814.67446 L 134.60679,804.92372 L 183.04515,814.67446 L 222.6143,841.26033 L 248.88744,880.08882 L 258.6747,928.34645 L 134.63305,928.93948 z M 258.6747,928.34645 L 249.35609,976.60395 L 222.67064,1016.0255 L 183.10149,1042.6114 L 134.66313,1052.3622 L 86.224752,1042.6114 L 46.655592,1016.0255 L 19.970142,976.60395 L 134.63305,928.93948 L 258.6747,928.34645 z"
       inkscape:label="#path2392"
       sodipodi:nodetypes="cccccccccccccccccccc" />
  </g>
</svg>
